<?xml version="1.0" encoding="utf-8" standalone="no"?>
<!DOCTYPE svg PUBLIC "-//W3C//DTD SVG 1.1//EN"
  "http://www.w3.org/Graphics/SVG/1.1/DTD/svg11.dtd">
<!-- Created with matplotlib (https://matplotlib.org/) -->
<svg height="334.54524pt" version="1.1" viewBox="0 0 433.13809 334.54524" width="433.13809pt" xmlns="http://www.w3.org/2000/svg" xmlns:xlink="http://www.w3.org/1999/xlink">
 <defs>
  <style type="text/css">
*{stroke-linecap:butt;stroke-linejoin:round;}
  </style>
 </defs>
 <g id="figure_1">
  <g id="patch_1">
   <path d="M 0 334.54524 
L 433.13809 334.54524 
L 433.13809 0 
L 0 0 
z
" style="fill:#ffffff;"/>
  </g>
  <g id="axes_1">
   <g id="patch_2">
    <path d="M 59.73154 289.31198 
L 416.85154 289.31198 
L 416.85154 23.19998 
L 59.73154 23.19998 
z
" style="fill:none;"/>
   </g>
   <g id="matplotlib.axis_1">
    <g id="xtick_1">
     <g id="line2d_1">
      <path clip-path="url(#p9ee5c50616)" d="M 59.73154 289.31198 
L 59.73154 23.19998 
" style="fill:none;stroke:#cccccc;stroke-linecap:round;"/>
     </g>
     <g id="line2d_2">
      <defs>
       <path d="M 0 0 
L 0 6 
" id="md80b0acb00" style="stroke:#262626;stroke-width:1.25;"/>
      </defs>
      <g>
       <use style="fill:#262626;stroke:#262626;stroke-width:1.25;" x="59.73154" xlink:href="#md80b0acb00" y="289.31198"/>
      </g>
     </g>
     <g id="text_1">
      <!-- $10^{-3}$ -->
      <defs>
       <path d="M 26.59375 63.796875 
C 26.59375 65.890625 26.5 66 25.09375 66 
C 21.203125 61.359375 15.296875 59.890625 9.703125 59.6875 
C 9.40625 59.6875 8.90625 59.6875 8.796875 59.5 
C 8.703125 59.296875 8.703125 59.09375 8.703125 57 
C 11.796875 57 17 57.59375 21 59.984375 
L 21 7.296875 
C 21 3.796875 20.796875 2.59375 12.203125 2.59375 
L 9.203125 2.59375 
L 9.203125 0 
C 14 0.09375 19 0.1875 23.796875 0.1875 
C 28.59375 0.1875 33.59375 0.09375 38.40625 0 
L 38.40625 2.59375 
L 35.40625 2.59375 
C 26.796875 2.59375 26.59375 3.6875 26.59375 7.296875 
z
" id="CMR17-49"/>
       <path d="M 42 31.84375 
C 42 37.96875 41.90625 48.421875 37.703125 56.453125 
C 34 63.484375 28.09375 66 22.90625 66 
C 18.09375 66 12 63.78125 8.203125 56.5625 
C 4.203125 49.015625 3.796875 39.671875 3.796875 31.84375 
C 3.796875 26.109375 3.90625 17.375 7 9.734375 
C 11.296875 -0.609375 19 -2 22.90625 -2 
C 27.5 -2 34.5 -0.109375 38.59375 9.4375 
C 41.59375 16.375 42 24.5 42 31.84375 
z
M 22.90625 -0.40625 
C 16.5 -0.40625 12.703125 5.125 11.296875 12.75 
C 10.203125 18.6875 10.203125 27.328125 10.203125 32.953125 
C 10.203125 40.6875 10.203125 47.109375 11.5 53.234375 
C 13.40625 61.78125 19 64.390625 22.90625 64.390625 
C 27 64.390625 32.296875 61.671875 34.203125 53.4375 
C 35.5 47.71875 35.59375 40.984375 35.59375 32.953125 
C 35.59375 26.421875 35.59375 18.375 34.40625 12.453125 
C 32.296875 1.5 26.40625 -0.40625 22.90625 -0.40625 
z
" id="CMR17-48"/>
       <path d="M 65.90625 23 
C 67.59375 23 69.40625 23 69.40625 25 
C 69.40625 27 67.59375 27 65.90625 27 
L 11.796875 27 
C 10.09375 27 8.296875 27 8.296875 25 
C 8.296875 23 10.09375 23 11.796875 23 
z
" id="CMSY10-0"/>
       <path d="M 22.09375 34 
C 31 34 34.90625 26.140625 34.90625 17.09375 
C 34.90625 5.03125 28.5 0.390625 22.703125 0.390625 
C 17.40625 0.390625 8.796875 3.015625 6.09375 10.796875 
C 6.59375 10.59375 7.09375 10.59375 7.59375 10.59375 
C 10 10.59375 11.796875 12.1875 11.796875 14.796875 
C 11.796875 17.6875 9.59375 19 7.59375 19 
C 5.90625 19 3.296875 18.1875 3.296875 14.484375 
C 3.296875 5.234375 12.296875 -2 22.90625 -2 
C 34 -2 42.5 6.75 42.5 16.984375 
C 42.5 26.84375 34.5 34 25 35.09375 
C 32.59375 36.671875 39.90625 43.375 39.90625 52.390625 
C 39.90625 60.25 32 66 23 66 
C 13.90625 66 5.90625 60.34375 5.90625 52.296875 
C 5.90625 48.796875 8.5 48.1875 9.796875 48.1875 
C 11.90625 48.1875 13.703125 49.484375 13.703125 52.09375 
C 13.703125 54.6875 11.90625 56 9.796875 56 
C 9.40625 56 8.90625 56 8.5 55.796875 
C 11.40625 62.484375 19.296875 63.6875 22.796875 63.6875 
C 26.296875 63.6875 32.90625 61.96875 32.90625 52.296875 
C 32.90625 49.484375 32.5 44.546875 29.09375 40.21875 
C 26.09375 36.390625 22.703125 36.1875 19.40625 35.890625 
C 18.90625 35.890625 16.59375 35.6875 16.203125 35.6875 
C 15.5 35.59375 15.09375 35.5 15.09375 34.796875 
C 15.09375 34.09375 15.203125 34 17.203125 34 
z
" id="CMR17-51"/>
      </defs>
      <g style="fill:#262626;" transform="translate(46.95189 307.97862)scale(0.132 -0.132)">
       <use transform="scale(0.996264)" xlink:href="#CMR17-49"/>
       <use transform="translate(45.690477 0)scale(0.996264)" xlink:href="#CMR17-48"/>
       <use transform="translate(91.380954 36.153639)scale(0.697382)" xlink:href="#CMSY10-0"/>
       <use transform="translate(145.621947 36.153639)scale(0.697382)" xlink:href="#CMR17-51"/>
      </g>
     </g>
    </g>
    <g id="xtick_2">
     <g id="line2d_3">
      <path clip-path="url(#p9ee5c50616)" d="M 119.25154 289.31198 
L 119.25154 23.19998 
" style="fill:none;stroke:#cccccc;stroke-linecap:round;"/>
     </g>
     <g id="line2d_4">
      <g>
       <use style="fill:#262626;stroke:#262626;stroke-width:1.25;" x="119.25154" xlink:href="#md80b0acb00" y="289.31198"/>
      </g>
     </g>
     <g id="text_2">
      <!-- $10^{-2}$ -->
      <defs>
       <path d="M 41.703125 15.46875 
L 39.90625 15.46875 
C 38.90625 8.390625 38.09375 7.1875 37.703125 6.59375 
C 37.203125 5.796875 30 5.796875 28.59375 5.796875 
L 9.40625 5.796875 
C 13 9.6875 20 16.765625 28.5 24.9375 
C 34.59375 30.71875 41.703125 37.5 41.703125 47.390625 
C 41.703125 59.1875 32.296875 66 21.796875 66 
C 10.796875 66 4.09375 56.296875 4.09375 47.296875 
C 4.09375 43.390625 7 42.890625 8.203125 42.890625 
C 9.203125 42.890625 12.203125 43.484375 12.203125 46.984375 
C 12.203125 50.09375 9.59375 51 8.203125 51 
C 7.59375 51 7 50.890625 6.59375 50.6875 
C 8.5 59.1875 14.296875 63.390625 20.40625 63.390625 
C 29.09375 63.390625 34.796875 56.5 34.796875 47.390625 
C 34.796875 38.703125 29.703125 31.21875 24 24.734375 
L 4.09375 2.296875 
L 4.09375 0 
L 39.296875 0 
z
" id="CMR17-50"/>
      </defs>
      <g style="fill:#262626;" transform="translate(106.47189 307.97862)scale(0.132 -0.132)">
       <use transform="scale(0.996264)" xlink:href="#CMR17-49"/>
       <use transform="translate(45.690477 0)scale(0.996264)" xlink:href="#CMR17-48"/>
       <use transform="translate(91.380954 36.153639)scale(0.697382)" xlink:href="#CMSY10-0"/>
       <use transform="translate(145.621947 36.153639)scale(0.697382)" xlink:href="#CMR17-50"/>
      </g>
     </g>
    </g>
    <g id="xtick_3">
     <g id="line2d_5">
      <path clip-path="url(#p9ee5c50616)" d="M 178.77154 289.31198 
L 178.77154 23.19998 
" style="fill:none;stroke:#cccccc;stroke-linecap:round;"/>
     </g>
     <g id="line2d_6">
      <g>
       <use style="fill:#262626;stroke:#262626;stroke-width:1.25;" x="178.77154" xlink:href="#md80b0acb00" y="289.31198"/>
      </g>
     </g>
     <g id="text_3">
      <!-- $10^{-1}$ -->
      <g style="fill:#262626;" transform="translate(165.99189 307.97862)scale(0.132 -0.132)">
       <use transform="scale(0.996264)" xlink:href="#CMR17-49"/>
       <use transform="translate(45.690477 0)scale(0.996264)" xlink:href="#CMR17-48"/>
       <use transform="translate(91.380954 36.153639)scale(0.697382)" xlink:href="#CMSY10-0"/>
       <use transform="translate(145.621947 36.153639)scale(0.697382)" xlink:href="#CMR17-49"/>
      </g>
     </g>
    </g>
    <g id="xtick_4">
     <g id="line2d_7">
      <path clip-path="url(#p9ee5c50616)" d="M 238.29154 289.31198 
L 238.29154 23.19998 
" style="fill:none;stroke:#cccccc;stroke-linecap:round;"/>
     </g>
     <g id="line2d_8">
      <g>
       <use style="fill:#262626;stroke:#262626;stroke-width:1.25;" x="238.29154" xlink:href="#md80b0acb00" y="289.31198"/>
      </g>
     </g>
     <g id="text_4">
      <!-- $10^{0}$ -->
      <g style="fill:#262626;" transform="translate(229.20499 307.97862)scale(0.132 -0.132)">
       <use transform="scale(0.996264)" xlink:href="#CMR17-49"/>
       <use transform="translate(45.690477 0)scale(0.996264)" xlink:href="#CMR17-48"/>
       <use transform="translate(91.380954 36.153639)scale(0.697382)" xlink:href="#CMR17-48"/>
      </g>
     </g>
    </g>
    <g id="xtick_5">
     <g id="line2d_9">
      <path clip-path="url(#p9ee5c50616)" d="M 297.81154 289.31198 
L 297.81154 23.19998 
" style="fill:none;stroke:#cccccc;stroke-linecap:round;"/>
     </g>
     <g id="line2d_10">
      <g>
       <use style="fill:#262626;stroke:#262626;stroke-width:1.25;" x="297.81154" xlink:href="#md80b0acb00" y="289.31198"/>
      </g>
     </g>
     <g id="text_5">
      <!-- $10^{1}$ -->
      <g style="fill:#262626;" transform="translate(288.72499 307.97862)scale(0.132 -0.132)">
       <use transform="scale(0.996264)" xlink:href="#CMR17-49"/>
       <use transform="translate(45.690477 0)scale(0.996264)" xlink:href="#CMR17-48"/>
       <use transform="translate(91.380954 36.153639)scale(0.697382)" xlink:href="#CMR17-49"/>
      </g>
     </g>
    </g>
    <g id="xtick_6">
     <g id="line2d_11">
      <path clip-path="url(#p9ee5c50616)" d="M 357.33154 289.31198 
L 357.33154 23.19998 
" style="fill:none;stroke:#cccccc;stroke-linecap:round;"/>
     </g>
     <g id="line2d_12">
      <g>
       <use style="fill:#262626;stroke:#262626;stroke-width:1.25;" x="357.33154" xlink:href="#md80b0acb00" y="289.31198"/>
      </g>
     </g>
     <g id="text_6">
      <!-- $10^{2}$ -->
      <g style="fill:#262626;" transform="translate(348.24499 307.97862)scale(0.132 -0.132)">
       <use transform="scale(0.996264)" xlink:href="#CMR17-49"/>
       <use transform="translate(45.690477 0)scale(0.996264)" xlink:href="#CMR17-48"/>
       <use transform="translate(91.380954 36.153639)scale(0.697382)" xlink:href="#CMR17-50"/>
      </g>
     </g>
    </g>
    <g id="xtick_7">
     <g id="line2d_13">
      <path clip-path="url(#p9ee5c50616)" d="M 416.85154 289.31198 
L 416.85154 23.19998 
" style="fill:none;stroke:#cccccc;stroke-linecap:round;"/>
     </g>
     <g id="line2d_14">
      <g>
       <use style="fill:#262626;stroke:#262626;stroke-width:1.25;" x="416.85154" xlink:href="#md80b0acb00" y="289.31198"/>
      </g>
     </g>
     <g id="text_7">
      <!-- $10^{3}$ -->
      <g style="fill:#262626;" transform="translate(407.76499 307.97862)scale(0.132 -0.132)">
       <use transform="scale(0.996264)" xlink:href="#CMR17-49"/>
       <use transform="translate(45.690477 0)scale(0.996264)" xlink:href="#CMR17-48"/>
       <use transform="translate(91.380954 36.153639)scale(0.697382)" xlink:href="#CMR17-51"/>
      </g>
     </g>
    </g>
    <g id="xtick_8">
     <g id="line2d_15">
      <defs>
       <path d="M 0 0 
L 0 4 
" id="ma93bb12aea" style="stroke:#262626;"/>
      </defs>
      <g>
       <use style="fill:#262626;stroke:#262626;" x="77.648845" xlink:href="#ma93bb12aea" y="289.31198"/>
      </g>
     </g>
    </g>
    <g id="xtick_9">
     <g id="line2d_16">
      <g>
       <use style="fill:#262626;stroke:#262626;" x="88.129797" xlink:href="#ma93bb12aea" y="289.31198"/>
      </g>
     </g>
    </g>
    <g id="xtick_10">
     <g id="line2d_17">
      <g>
       <use style="fill:#262626;stroke:#262626;" x="95.566151" xlink:href="#ma93bb12aea" y="289.31198"/>
      </g>
     </g>
    </g>
    <g id="xtick_11">
     <g id="line2d_18">
      <g>
       <use style="fill:#262626;stroke:#262626;" x="101.334235" xlink:href="#ma93bb12aea" y="289.31198"/>
      </g>
     </g>
    </g>
    <g id="xtick_12">
     <g id="line2d_19">
      <g>
       <use style="fill:#262626;stroke:#262626;" x="106.047102" xlink:href="#ma93bb12aea" y="289.31198"/>
      </g>
     </g>
    </g>
    <g id="xtick_13">
     <g id="line2d_20">
      <g>
       <use style="fill:#262626;stroke:#262626;" x="110.031775" xlink:href="#ma93bb12aea" y="289.31198"/>
      </g>
     </g>
    </g>
    <g id="xtick_14">
     <g id="line2d_21">
      <g>
       <use style="fill:#262626;stroke:#262626;" x="113.483456" xlink:href="#ma93bb12aea" y="289.31198"/>
      </g>
     </g>
    </g>
    <g id="xtick_15">
     <g id="line2d_22">
      <g>
       <use style="fill:#262626;stroke:#262626;" x="116.528054" xlink:href="#ma93bb12aea" y="289.31198"/>
      </g>
     </g>
    </g>
    <g id="xtick_16">
     <g id="line2d_23">
      <g>
       <use style="fill:#262626;stroke:#262626;" x="137.168845" xlink:href="#ma93bb12aea" y="289.31198"/>
      </g>
     </g>
    </g>
    <g id="xtick_17">
     <g id="line2d_24">
      <g>
       <use style="fill:#262626;stroke:#262626;" x="147.649797" xlink:href="#ma93bb12aea" y="289.31198"/>
      </g>
     </g>
    </g>
    <g id="xtick_18">
     <g id="line2d_25">
      <g>
       <use style="fill:#262626;stroke:#262626;" x="155.086151" xlink:href="#ma93bb12aea" y="289.31198"/>
      </g>
     </g>
    </g>
    <g id="xtick_19">
     <g id="line2d_26">
      <g>
       <use style="fill:#262626;stroke:#262626;" x="160.854235" xlink:href="#ma93bb12aea" y="289.31198"/>
      </g>
     </g>
    </g>
    <g id="xtick_20">
     <g id="line2d_27">
      <g>
       <use style="fill:#262626;stroke:#262626;" x="165.567102" xlink:href="#ma93bb12aea" y="289.31198"/>
      </g>
     </g>
    </g>
    <g id="xtick_21">
     <g id="line2d_28">
      <g>
       <use style="fill:#262626;stroke:#262626;" x="169.551775" xlink:href="#ma93bb12aea" y="289.31198"/>
      </g>
     </g>
    </g>
    <g id="xtick_22">
     <g id="line2d_29">
      <g>
       <use style="fill:#262626;stroke:#262626;" x="173.003456" xlink:href="#ma93bb12aea" y="289.31198"/>
      </g>
     </g>
    </g>
    <g id="xtick_23">
     <g id="line2d_30">
      <g>
       <use style="fill:#262626;stroke:#262626;" x="176.048054" xlink:href="#ma93bb12aea" y="289.31198"/>
      </g>
     </g>
    </g>
    <g id="xtick_24">
     <g id="line2d_31">
      <g>
       <use style="fill:#262626;stroke:#262626;" x="196.688845" xlink:href="#ma93bb12aea" y="289.31198"/>
      </g>
     </g>
    </g>
    <g id="xtick_25">
     <g id="line2d_32">
      <g>
       <use style="fill:#262626;stroke:#262626;" x="207.169797" xlink:href="#ma93bb12aea" y="289.31198"/>
      </g>
     </g>
    </g>
    <g id="xtick_26">
     <g id="line2d_33">
      <g>
       <use style="fill:#262626;stroke:#262626;" x="214.606151" xlink:href="#ma93bb12aea" y="289.31198"/>
      </g>
     </g>
    </g>
    <g id="xtick_27">
     <g id="line2d_34">
      <g>
       <use style="fill:#262626;stroke:#262626;" x="220.374235" xlink:href="#ma93bb12aea" y="289.31198"/>
      </g>
     </g>
    </g>
    <g id="xtick_28">
     <g id="line2d_35">
      <g>
       <use style="fill:#262626;stroke:#262626;" x="225.087102" xlink:href="#ma93bb12aea" y="289.31198"/>
      </g>
     </g>
    </g>
    <g id="xtick_29">
     <g id="line2d_36">
      <g>
       <use style="fill:#262626;stroke:#262626;" x="229.071775" xlink:href="#ma93bb12aea" y="289.31198"/>
      </g>
     </g>
    </g>
    <g id="xtick_30">
     <g id="line2d_37">
      <g>
       <use style="fill:#262626;stroke:#262626;" x="232.523456" xlink:href="#ma93bb12aea" y="289.31198"/>
      </g>
     </g>
    </g>
    <g id="xtick_31">
     <g id="line2d_38">
      <g>
       <use style="fill:#262626;stroke:#262626;" x="235.568054" xlink:href="#ma93bb12aea" y="289.31198"/>
      </g>
     </g>
    </g>
    <g id="xtick_32">
     <g id="line2d_39">
      <g>
       <use style="fill:#262626;stroke:#262626;" x="256.208845" xlink:href="#ma93bb12aea" y="289.31198"/>
      </g>
     </g>
    </g>
    <g id="xtick_33">
     <g id="line2d_40">
      <g>
       <use style="fill:#262626;stroke:#262626;" x="266.689797" xlink:href="#ma93bb12aea" y="289.31198"/>
      </g>
     </g>
    </g>
    <g id="xtick_34">
     <g id="line2d_41">
      <g>
       <use style="fill:#262626;stroke:#262626;" x="274.126151" xlink:href="#ma93bb12aea" y="289.31198"/>
      </g>
     </g>
    </g>
    <g id="xtick_35">
     <g id="line2d_42">
      <g>
       <use style="fill:#262626;stroke:#262626;" x="279.894235" xlink:href="#ma93bb12aea" y="289.31198"/>
      </g>
     </g>
    </g>
    <g id="xtick_36">
     <g id="line2d_43">
      <g>
       <use style="fill:#262626;stroke:#262626;" x="284.607102" xlink:href="#ma93bb12aea" y="289.31198"/>
      </g>
     </g>
    </g>
    <g id="xtick_37">
     <g id="line2d_44">
      <g>
       <use style="fill:#262626;stroke:#262626;" x="288.591775" xlink:href="#ma93bb12aea" y="289.31198"/>
      </g>
     </g>
    </g>
    <g id="xtick_38">
     <g id="line2d_45">
      <g>
       <use style="fill:#262626;stroke:#262626;" x="292.043456" xlink:href="#ma93bb12aea" y="289.31198"/>
      </g>
     </g>
    </g>
    <g id="xtick_39">
     <g id="line2d_46">
      <g>
       <use style="fill:#262626;stroke:#262626;" x="295.088054" xlink:href="#ma93bb12aea" y="289.31198"/>
      </g>
     </g>
    </g>
    <g id="xtick_40">
     <g id="line2d_47">
      <g>
       <use style="fill:#262626;stroke:#262626;" x="315.728845" xlink:href="#ma93bb12aea" y="289.31198"/>
      </g>
     </g>
    </g>
    <g id="xtick_41">
     <g id="line2d_48">
      <g>
       <use style="fill:#262626;stroke:#262626;" x="326.209797" xlink:href="#ma93bb12aea" y="289.31198"/>
      </g>
     </g>
    </g>
    <g id="xtick_42">
     <g id="line2d_49">
      <g>
       <use style="fill:#262626;stroke:#262626;" x="333.646151" xlink:href="#ma93bb12aea" y="289.31198"/>
      </g>
     </g>
    </g>
    <g id="xtick_43">
     <g id="line2d_50">
      <g>
       <use style="fill:#262626;stroke:#262626;" x="339.414235" xlink:href="#ma93bb12aea" y="289.31198"/>
      </g>
     </g>
    </g>
    <g id="xtick_44">
     <g id="line2d_51">
      <g>
       <use style="fill:#262626;stroke:#262626;" x="344.127102" xlink:href="#ma93bb12aea" y="289.31198"/>
      </g>
     </g>
    </g>
    <g id="xtick_45">
     <g id="line2d_52">
      <g>
       <use style="fill:#262626;stroke:#262626;" x="348.111775" xlink:href="#ma93bb12aea" y="289.31198"/>
      </g>
     </g>
    </g>
    <g id="xtick_46">
     <g id="line2d_53">
      <g>
       <use style="fill:#262626;stroke:#262626;" x="351.563456" xlink:href="#ma93bb12aea" y="289.31198"/>
      </g>
     </g>
    </g>
    <g id="xtick_47">
     <g id="line2d_54">
      <g>
       <use style="fill:#262626;stroke:#262626;" x="354.608054" xlink:href="#ma93bb12aea" y="289.31198"/>
      </g>
     </g>
    </g>
    <g id="xtick_48">
     <g id="line2d_55">
      <g>
       <use style="fill:#262626;stroke:#262626;" x="375.248845" xlink:href="#ma93bb12aea" y="289.31198"/>
      </g>
     </g>
    </g>
    <g id="xtick_49">
     <g id="line2d_56">
      <g>
       <use style="fill:#262626;stroke:#262626;" x="385.729797" xlink:href="#ma93bb12aea" y="289.31198"/>
      </g>
     </g>
    </g>
    <g id="xtick_50">
     <g id="line2d_57">
      <g>
       <use style="fill:#262626;stroke:#262626;" x="393.166151" xlink:href="#ma93bb12aea" y="289.31198"/>
      </g>
     </g>
    </g>
    <g id="xtick_51">
     <g id="line2d_58">
      <g>
       <use style="fill:#262626;stroke:#262626;" x="398.934235" xlink:href="#ma93bb12aea" y="289.31198"/>
      </g>
     </g>
    </g>
    <g id="xtick_52">
     <g id="line2d_59">
      <g>
       <use style="fill:#262626;stroke:#262626;" x="403.647102" xlink:href="#ma93bb12aea" y="289.31198"/>
      </g>
     </g>
    </g>
    <g id="xtick_53">
     <g id="line2d_60">
      <g>
       <use style="fill:#262626;stroke:#262626;" x="407.631775" xlink:href="#ma93bb12aea" y="289.31198"/>
      </g>
     </g>
    </g>
    <g id="xtick_54">
     <g id="line2d_61">
      <g>
       <use style="fill:#262626;stroke:#262626;" x="411.083456" xlink:href="#ma93bb12aea" y="289.31198"/>
      </g>
     </g>
    </g>
    <g id="xtick_55">
     <g id="line2d_62">
      <g>
       <use style="fill:#262626;stroke:#262626;" x="414.128054" xlink:href="#ma93bb12aea" y="289.31198"/>
      </g>
     </g>
    </g>
    <g id="text_8">
     <!-- $\eta$ -->
     <defs>
      <path d="M 47.5 27.625 
C 48 29.625 48.296875 30.828125 48.296875 33.515625 
C 48.296875 39.5 44.796875 44 37.203125 44 
C 28.296875 44 23.59375 37.703125 21.796875 35.203125 
C 21.5 40.890625 17.40625 44 13 44 
C 10.09375 44 7.796875 42.59375 5.90625 38.796875 
C 4.09375 35.203125 2.703125 29.125 2.703125 28.71875 
C 2.703125 28.328125 3.09375 27.828125 3.796875 27.828125 
C 4.59375 27.828125 4.703125 27.921875 5.296875 30.21875 
C 6.796875 36.109375 8.703125 41.984375 12.703125 41.984375 
C 15 41.984375 15.796875 40.40625 15.796875 37.40625 
C 15.796875 35.203125 14.796875 31.3125 14.09375 28.234375 
L 11.296875 17.453125 
C 10.90625 15.5625 9.796875 11.0625 9.296875 9.265625 
C 8.59375 6.671875 7.5 1.984375 7.5 1.484375 
C 7.5 0.09375 8.59375 -1 10.09375 -1 
C 11.296875 -1 12.703125 -0.40625 13.5 1.09375 
C 13.703125 1.59375 14.59375 5.078125 15.09375 7.078125 
L 17.296875 16.0625 
L 20.59375 29.21875 
C 20.796875 29.828125 23.296875 34.8125 27 38 
C 29.59375 40.40625 33 41.984375 36.90625 41.984375 
C 40.90625 41.984375 42.296875 39 42.296875 35.015625 
C 42.296875 32.125 41.90625 30.515625 41.40625 28.625 
L 29.796875 -16.953125 
C 29.703125 -17.4375 29.5 -18.03125 29.5 -18.609375 
C 29.5 -20.109375 30.703125 -21.109375 32.203125 -21.109375 
C 33.09375 -21.109375 35.203125 -20.703125 36 -17.734375 
z
" id="CMMI12-17"/>
     </defs>
     <g style="fill:#262626;" transform="translate(234.554915 324.54525)scale(0.144 -0.144)">
      <use transform="translate(0 -0.072648)scale(0.996264)" xlink:href="#CMMI12-17"/>
     </g>
    </g>
   </g>
   <g id="matplotlib.axis_2">
    <g id="ytick_1">
     <g id="line2d_63">
      <path clip-path="url(#p9ee5c50616)" d="M 59.73154 289.31198 
L 416.85154 289.31198 
" style="fill:none;stroke:#cccccc;stroke-linecap:round;"/>
     </g>
     <g id="line2d_64">
      <defs>
       <path d="M 0 0 
L -6 0 
" id="m4cb075b2a1" style="stroke:#262626;stroke-width:1.25;"/>
      </defs>
      <g>
       <use style="fill:#262626;stroke:#262626;stroke-width:1.25;" x="59.73154" xlink:href="#m4cb075b2a1" y="289.31198"/>
      </g>
     </g>
     <g id="text_9">
      <!-- $-20$ -->
      <g style="fill:#262626;" transform="translate(27.04001 293.8953)scale(0.132 -0.132)">
       <use transform="translate(0 -0.031134)scale(0.996264)" xlink:href="#CMSY10-0"/>
       <use transform="translate(77.487468 -0.031134)scale(0.996264)" xlink:href="#CMR17-50"/>
       <use transform="translate(123.177945 -0.031134)scale(0.996264)" xlink:href="#CMR17-48"/>
      </g>
     </g>
    </g>
    <g id="ytick_2">
     <g id="line2d_65">
      <path clip-path="url(#p9ee5c50616)" d="M 59.73154 279.80798 
L 416.85154 279.80798 
" style="fill:none;stroke:#cccccc;stroke-linecap:round;"/>
     </g>
     <g id="line2d_66">
      <g>
       <use style="fill:#262626;stroke:#262626;stroke-width:1.25;" x="59.73154" xlink:href="#m4cb075b2a1" y="279.80798"/>
      </g>
     </g>
     <g id="text_10">
      <!-- $0$ -->
      <g style="fill:#262626;" transform="translate(43.76912 284.3913)scale(0.132 -0.132)">
       <use transform="scale(0.996264)" xlink:href="#CMR17-48"/>
      </g>
     </g>
    </g>
    <g id="ytick_3">
     <g id="line2d_67">
      <path clip-path="url(#p9ee5c50616)" d="M 59.73154 23.19998 
L 416.85154 23.19998 
" style="fill:none;stroke:#cccccc;stroke-linecap:round;"/>
     </g>
     <g id="line2d_68">
      <g>
       <use style="fill:#262626;stroke:#262626;stroke-width:1.25;" x="59.73154" xlink:href="#m4cb075b2a1" y="23.19998"/>
      </g>
     </g>
     <g id="text_11">
      <!-- $540$ -->
      <defs>
       <path d="M 11.40625 58.59375 
C 12.40625 58.1875 16.5 56.890625 20.703125 56.890625 
C 30 56.890625 35.09375 61.890625 38 64.6875 
C 38 65.484375 38 66 37.40625 66 
C 37.296875 66 37.09375 66 36.296875 65.59375 
C 32.796875 64.09375 28.703125 63 23.703125 63 
C 20.703125 63 16.203125 63.359375 11.296875 65.484375 
C 10.203125 66 10 66 9.90625 66 
C 9.40625 66 9.296875 65.890625 9.296875 63.90625 
L 9.296875 34.859375 
C 9.296875 33.015625 9.296875 32.5 10.296875 32.5 
C 10.796875 32.5 11 32.703125 11.5 33.421875 
C 14.703125 38.046875 19.09375 40 24.09375 40 
C 27.59375 40 35.09375 37.734375 35.09375 20.203125 
C 35.09375 16.984375 35.09375 11.1875 32.09375 6.59375 
C 29.59375 2.484375 25.703125 0.390625 21.40625 0.390625 
C 14.796875 0.390625 8.09375 4.984375 6.296875 12.6875 
C 6.703125 12.59375 7.5 12.390625 7.90625 12.390625 
C 9.203125 12.390625 11.703125 13.09375 11.703125 16.1875 
C 11.703125 18.890625 9.796875 20 7.90625 20 
C 5.59375 20 4.09375 18.59375 4.09375 15.796875 
C 4.09375 7.09375 11 -2 21.59375 -2 
C 31.90625 -2 41.703125 6.890625 41.703125 19.796875 
C 41.703125 32.09375 33.90625 41.59375 24.203125 41.59375 
C 19.09375 41.59375 14.796875 39.6875 11.40625 36 
z
" id="CMR17-53"/>
       <path d="M 33.59375 64.796875 
C 33.59375 66.890625 33.5 67 31.703125 67 
L 2 19.59375 
L 2 17 
L 27.796875 17 
L 27.796875 7.1875 
C 27.796875 3.59375 27.59375 2.59375 20.59375 2.59375 
L 18.703125 2.59375 
L 18.703125 0 
C 21.90625 0.1875 27.296875 0.1875 30.703125 0.1875 
C 34.09375 0.1875 39.5 0.1875 42.703125 0 
L 42.703125 2.59375 
L 40.796875 2.59375 
C 33.796875 2.59375 33.59375 3.59375 33.59375 7.1875 
L 33.59375 17 
L 43.796875 17 
L 43.796875 19.59375 
L 33.59375 19.59375 
z
M 28.09375 58.171875 
L 28.09375 19.59375 
L 4 19.59375 
z
" id="CMR17-52"/>
      </defs>
      <g style="fill:#262626;" transform="translate(30.84429 27.7833)scale(0.132 -0.132)">
       <use transform="scale(0.996264)" xlink:href="#CMR17-53"/>
       <use transform="translate(45.690477 0)scale(0.996264)" xlink:href="#CMR17-52"/>
       <use transform="translate(91.380954 0)scale(0.996264)" xlink:href="#CMR17-48"/>
      </g>
     </g>
    </g>
    <g id="text_12">
     <!-- $\mathrm{d} L_{\hat{\sigma}^2(\eta)}(\eta)/\mathrm{d} \eta$ -->
     <defs>
      <path d="M 29.203125 67.890625 
L 29.203125 65.296875 
C 35.09375 65.296875 36 64.703125 36 60.046875 
L 36 37.046875 
C 35.59375 37.546875 31.5 44 23.40625 44 
C 13.203125 44 3.296875 34.8125 3.296875 21.5 
C 3.296875 8.265625 12.59375 -1 22.40625 -1 
C 30.90625 -1 35.296875 5.640625 35.796875 6.34375 
L 35.796875 -1 
L 47.90625 -0.203125 
L 47.90625 2.40625 
C 42 2.40625 41.09375 3.015625 41.09375 7.859375 
L 41.09375 69 
z
M 35.796875 11.90625 
C 35.796875 8.875 34 6.140625 31.703125 4.125 
C 28.296875 1.09375 24.90625 0.59375 23 0.59375 
C 20.09375 0.59375 9.703125 2.109375 9.703125 21.390625 
C 9.703125 41.1875 21.296875 42.390625 23.90625 42.390625 
C 28.5 42.390625 32.203125 39.765625 34.5 36.140625 
C 35.796875 34.015625 35.796875 33.703125 35.796875 31.890625 
z
" id="CMR17-100"/>
      <path d="M 36.703125 60.3125 
C 37.59375 64.09375 37.90625 65.09375 46.703125 65.09375 
C 49.40625 65.09375 50.09375 65.09375 50.09375 66.984375 
C 50.09375 68 49 68 48.59375 68 
C 46.59375 68 44.296875 67.796875 42.296875 67.796875 
L 28.90625 67.796875 
C 27 67.796875 24.796875 68 22.90625 68 
C 22.09375 68 21 68 21 66.09375 
C 21 65.09375 21.90625 65.09375 23.40625 65.09375 
C 29.5 65.09375 29.5 64.296875 29.5 63.203125 
C 29.5 63 29.5 62.40625 29.09375 60.90625 
L 15.59375 7.375 
C 14.703125 3.890625 14.5 2.890625 7.5 2.890625 
C 5.59375 2.890625 4.59375 2.890625 4.59375 1.09375 
C 4.59375 0 5.203125 0 7.203125 0 
L 52 0 
C 54.203125 0 54.296875 0.09375 55 1.890625 
L 62.703125 23.09375 
C 62.90625 23.59375 63.09375 24.1875 63.09375 24.484375 
C 63.09375 25.078125 62.59375 25.484375 62.09375 25.484375 
C 62 25.484375 61.5 25.484375 61.296875 25.078125 
C 61.09375 24.984375 61.09375 24.78125 60.296875 22.890625 
C 57.09375 14.140625 52.59375 2.890625 35.703125 2.890625 
L 26.09375 2.890625 
C 24.703125 2.890625 24.5 2.890625 23.90625 2.984375 
C 22.796875 3.09375 22.703125 3.296875 22.703125 4.09375 
C 22.703125 4.78125 22.90625 5.375 23.09375 6.28125 
z
" id="CMMI12-76"/>
      <path d="M 22.90625 69 
L 10.59375 55.1875 
L 11.796875 54 
L 22.90625 64.984375 
L 34 54 
L 35.203125 55.1875 
z
" id="CMR17-94"/>
      <path d="M 50.796875 37.59375 
C 52.09375 37.59375 55.40625 37.59375 55.40625 40.796875 
C 55.40625 43 53.5 43 51.703125 43 
L 29.59375 43 
C 14.59375 43 3.796875 26.328125 3.796875 14.5625 
C 3.796875 6.078125 9.296875 -1 18.296875 -1 
C 30.09375 -1 43 11.65625 43 26.625 
C 43 30.515625 42.09375 34.296875 39.703125 37.59375 
z
M 18.40625 1 
C 13.296875 1 9.59375 4.875 9.59375 11.765625 
C 9.59375 17.75 13.203125 37.59375 27.90625 37.59375 
C 32.203125 37.59375 37 35.5 37 27.8125 
C 37 24.328125 35.40625 15.953125 31.90625 10.171875 
C 28.296875 4.28125 22.90625 1 18.40625 1 
z
" id="CMMI12-27"/>
      <path d="M 30.59375 -24.40625 
C 30.59375 -24.3125 30.59375 -24.109375 30.296875 -23.8125 
C 25.703125 -19.109375 13.40625 -6.296875 13.40625 24.9375 
C 13.40625 56.171875 25.5 68.875 30.40625 73.890625 
C 30.40625 73.984375 30.59375 74.1875 30.59375 74.484375 
C 30.59375 74.796875 30.296875 75 29.90625 75 
C 28.796875 75 20.296875 67.578125 15.40625 56.5625 
C 10.40625 45.453125 9 34.65625 9 25.046875 
C 9 17.828125 9.703125 5.625 15.703125 -7.296875 
C 20.5 -17.703125 28.703125 -25 29.90625 -25 
C 30.40625 -25 30.59375 -24.8125 30.59375 -24.40625 
z
" id="CMR17-40"/>
      <path d="M 26.296875 24.9375 
C 26.296875 32.140625 25.59375 44.359375 19.59375 57.265625 
C 14.796875 67.6875 6.59375 75 5.40625 75 
C 5.09375 75 4.703125 74.890625 4.703125 74.390625 
C 4.703125 74.1875 4.796875 74.09375 4.90625 73.890625 
C 9.703125 68.875 21.90625 56.171875 21.90625 25.046875 
C 21.90625 -6.1875 9.796875 -18.90625 4.90625 -23.90625 
C 4.796875 -24.109375 4.703125 -24.203125 4.703125 -24.40625 
C 4.703125 -24.90625 5.09375 -25 5.40625 -25 
C 6.5 -25 15 -17.609375 19.90625 -6.59375 
C 24.90625 4.515625 26.296875 15.328125 26.296875 24.9375 
z
" id="CMR17-41"/>
      <path d="M 42.90625 71.296875 
C 42.90625 71.390625 43.5 72.890625 43.5 73.09375 
C 43.5 74.296875 42.5 75 41.703125 75 
C 41.203125 75 40.296875 75 39.5 72.796875 
L 6 -21.3125 
C 6 -21.40625 5.40625 -22.90625 5.40625 -23.109375 
C 5.40625 -24.3125 6.40625 -25 7.203125 -25 
C 7.796875 -25 8.703125 -24.90625 9.40625 -22.8125 
z
" id="CMMI12-61"/>
     </defs>
     <g style="fill:#262626;" transform="translate(17.99999 197.44776)rotate(-90)scale(0.144 -0.144)">
      <use transform="translate(0 -0.132444)scale(0.996264)" xlink:href="#CMR17-100"/>
      <use transform="translate(50.89537 -0.132444)scale(0.996264)" xlink:href="#CMMI12-76"/>
      <use transform="translate(121.931581 -18.068905)scale(0.697382)" xlink:href="#CMR17-94"/>
      <use transform="translate(117.266245 -18.073435)scale(0.697382)" xlink:href="#CMMI12-27"/>
      <use transform="translate(158.580084 2.073137)scale(0.498132)" xlink:href="#CMR17-50"/>
      <use transform="translate(181.923454 -18.073435)scale(0.697382)" xlink:href="#CMR17-40"/>
      <use transform="translate(206.619875 -18.073435)scale(0.697382)" xlink:href="#CMMI12-17"/>
      <use transform="translate(242.812369 -18.073435)scale(0.697382)" xlink:href="#CMR17-41"/>
      <use transform="translate(268.006922 -0.132444)scale(0.996264)" xlink:href="#CMR17-40"/>
      <use transform="translate(303.287689 -0.132444)scale(0.996264)" xlink:href="#CMMI12-17"/>
      <use transform="translate(354.991505 -0.132444)scale(0.996264)" xlink:href="#CMR17-41"/>
      <use transform="translate(390.272273 -0.132444)scale(0.996264)" xlink:href="#CMMI12-61"/>
      <use transform="translate(439.047192 -0.132444)scale(0.996264)" xlink:href="#CMR17-100"/>
      <use transform="translate(489.942562 -0.132444)scale(0.996264)" xlink:href="#CMMI12-17"/>
     </g>
    </g>
   </g>
   <g id="patch_3">
    <path clip-path="url(#p9ee5c50616)" d="M 297.81154 279.808075 
L 416.85154 279.808075 
L 416.85154 279.807885 
L 297.81154 279.807885 
L 297.81154 279.808075 
z
" style="fill:none;stroke:#808080;stroke-linejoin:miter;"/>
   </g>
   <g id="line2d_69">
    <path clip-path="url(#p9ee5c50616)" d="M 59.73154 24.764279 
L 64.590316 25.944705 
L 69.449091 27.363345 
L 74.307867 29.068922 
L 79.166642 31.116628 
L 84.025418 33.56841 
L 88.884193 36.493152 
L 93.742969 39.96663 
L 98.601744 44.071078 
L 103.46052 48.894088 
L 108.319295 54.526594 
L 113.178071 61.059542 
L 118.036846 68.578879 
L 122.895622 77.158563 
L 127.754397 86.851401 
L 132.613173 97.677926 
L 137.471948 109.614005 
L 142.330724 122.578584 
L 147.189499 136.423799 
L 152.048275 150.930208 
L 166.624601 195.288944 
L 171.483377 209.14282 
L 176.342152 221.948241 
L 181.200928 233.441591 
L 186.059703 243.453152 
L 190.918479 251.916421 
L 195.777254 258.862438 
L 200.63603 264.401782 
L 205.494805 268.699366 
L 210.353581 271.947795 
L 215.212356 274.344024 
L 220.071132 276.072086 
L 224.929907 277.292625 
L 229.788683 278.138441 
L 234.647458 278.714498 
L 239.506234 279.100683 
L 249.223785 279.52229 
L 263.800111 279.740718 
L 292.952764 279.805607 
L 416.85154 279.80798 
L 416.85154 279.80798 
" style="fill:none;stroke:#000000;stroke-linecap:round;stroke-width:1.5;"/>
   </g>
   <g id="line2d_70">
    <defs>
     <path d="M 0 2 
C 0.530406 2 1.03916 1.789267 1.414214 1.414214 
C 1.789267 1.03916 2 0.530406 2 0 
C 2 -0.530406 1.789267 -1.03916 1.414214 -1.414214 
C 1.03916 -1.789267 0.530406 -2 0 -2 
C -0.530406 -2 -1.03916 -1.789267 -1.414214 -1.414214 
C -1.789267 -1.03916 -2 -0.530406 -2 0 
C -2 0.530406 -1.789267 1.03916 -1.414214 1.414214 
C -1.03916 1.789267 -0.530406 2 0 2 
z
" id="mcd8dfcc929" style="stroke:#000000;"/>
    </defs>
    <g clip-path="url(#p9ee5c50616)">
     <use style="stroke:#000000;" x="315.239482" xlink:href="#mcd8dfcc929" y="279.80798"/>
    </g>
   </g>
   <g id="patch_4">
    <path d="M 59.73154 289.31198 
L 59.73154 23.19998 
" style="fill:none;stroke:#262626;stroke-linecap:square;stroke-linejoin:miter;stroke-width:1.25;"/>
   </g>
   <g id="patch_5">
    <path d="M 416.85154 289.31198 
L 416.85154 23.19998 
" style="fill:none;stroke:#262626;stroke-linecap:square;stroke-linejoin:miter;stroke-width:1.25;"/>
   </g>
   <g id="patch_6">
    <path d="M 59.73154 289.31198 
L 416.85154 289.31198 
" style="fill:none;stroke:#262626;stroke-linecap:square;stroke-linejoin:miter;stroke-width:1.25;"/>
   </g>
   <g id="patch_7">
    <path d="M 59.73154 23.19998 
L 416.85154 23.19998 
" style="fill:none;stroke:#262626;stroke-linecap:square;stroke-linejoin:miter;stroke-width:1.25;"/>
   </g>
   <g id="text_13">
    <!-- Derivative of Marginal Log-Likelihood function -->
    <defs>
     <path d="M 5.203125 68 
L 5.203125 65.390625 
C 12.09375 65.390625 13.203125 65.390625 13.203125 60.90625 
L 13.203125 7.078125 
C 13.203125 2.59375 12.09375 2.59375 5.203125 2.59375 
L 5.203125 0 
L 37 0 
C 53.09375 0 66 14.734375 66 33.4375 
C 66 52.25 53.296875 68 37 68 
z
M 23.796875 2.59375 
C 19.796875 2.59375 19.59375 3.09375 19.59375 6.46875 
L 19.59375 61.5 
C 19.59375 64.890625 19.796875 65.390625 23.796875 65.390625 
L 35 65.390625 
C 43.296875 65.390625 58.59375 60.515625 58.59375 33.4375 
C 58.59375 19.40625 54.5 13.734375 52.59375 11.046875 
C 50.203125 7.96875 44.5 2.59375 35 2.59375 
z
" id="CMR17-68"/>
     <path d="M 38.09375 23.484375 
C 38.5 23.890625 38.5 24.09375 38.5 25.09375 
C 38.5 35.171875 33.09375 44 21.703125 44 
C 11.09375 44 2.703125 33.984375 2.703125 21.78125 
C 2.703125 8.65625 12.203125 -1 22.796875 -1 
C 34 -1 38.40625 9.671875 38.40625 11.796875 
C 38.40625 12.5 37.796875 12.5 37.59375 12.5 
C 36.90625 12.5 36.796875 12.296875 36.40625 11.078125 
C 34.203125 4.21875 28.703125 0.796875 23.5 0.796875 
C 19.203125 0.796875 14.90625 3.21875 12.203125 7.65625 
C 9.09375 12.796875 9.09375 18.75 9.09375 23.484375 
z
M 9.203125 25 
C 9.90625 39.234375 17.59375 42.390625 21.59375 42.390625 
C 28.40625 42.390625 33 36.0625 33.09375 25 
z
" id="CMR17-101"/>
     <path d="M 15 23.703125 
C 15 33.34375 19.09375 42.390625 26.59375 42.390625 
C 27.296875 42.390625 28 42.296875 28.703125 41.984375 
C 28.703125 41.984375 26.5 41.28125 26.5 38.671875 
C 26.5 36.265625 28.40625 35.265625 29.90625 35.265625 
C 31.09375 35.265625 33.296875 35.96875 33.296875 38.78125 
C 33.296875 41.984375 30.09375 44 26.703125 44 
C 19.09375 44 15.796875 36.5625 14.796875 33.046875 
L 14.703125 33.046875 
L 14.703125 44 
L 3.09375 42.890625 
L 3.09375 40.28125 
C 9 40.28125 9.90625 39.6875 9.90625 34.859375 
L 9.90625 6.921875 
C 9.90625 3.09375 9.5 2.59375 3.09375 2.59375 
L 3.09375 0 
C 5.5 0.1875 10.09375 0.1875 12.703125 0.1875 
C 15.59375 0.1875 20.703125 0.1875 23.40625 0 
L 23.40625 2.59375 
C 16.203125 2.59375 15 2.59375 15 7.109375 
z
" id="CMR17-114"/>
     <path d="M 15.5 61.890625 
C 15.5 64.09375 13.703125 66 11.40625 66 
C 9.203125 66 7.296875 64.1875 7.296875 61.890625 
C 7.296875 59.6875 9.09375 57.796875 11.40625 57.796875 
C 13.59375 57.796875 15.5 59.59375 15.5 61.890625 
z
M 3.796875 42.890625 
L 3.796875 40.296875 
C 9.40625 40.296875 10.203125 39.6875 10.203125 34.859375 
L 10.203125 6.921875 
C 10.203125 3.09375 9.796875 2.59375 3.40625 2.59375 
L 3.40625 0 
C 5.796875 0.1875 10.09375 0.1875 12.59375 0.1875 
C 15 0.1875 19.09375 0.1875 21.40625 0 
L 21.40625 2.59375 
C 15.5 2.59375 15.296875 3.203125 15.296875 6.8125 
L 15.296875 44 
z
" id="CMR17-105"/>
     <path d="M 39.09375 33.953125 
C 40 36.171875 41.59375 40.1875 47.40625 40.390625 
L 47.40625 43 
C 45.5 42.890625 43 42.796875 41.09375 42.796875 
C 39 42.796875 35.703125 42.796875 33.703125 43 
L 33.703125 40.390625 
C 36.203125 40.1875 37.59375 38.984375 37.59375 36.375 
C 37.59375 35.46875 37.59375 35.265625 37 33.859375 
L 26 5.921875 
L 14.09375 36.0625 
C 13.5 37.375 13.5 37.578125 13.5 37.984375 
C 13.5 40.390625 16.796875 40.390625 18.296875 40.390625 
L 18.296875 43 
C 15.90625 42.796875 11.5 42.796875 9 42.796875 
C 6.296875 42.796875 3.203125 42.796875 1 43 
L 1 40.390625 
C 4.796875 40.390625 6.90625 40.390625 8.09375 37.28125 
L 22.59375 0.6875 
C 23.203125 -0.8125 23.296875 -1 24.203125 -1 
C 25.09375 -1 25.203125 -0.8125 25.796875 0.6875 
z
" id="CMR17-118"/>
     <path d="M 36 25.875 
C 36 32 36 35.546875 31.796875 39.59375 
C 28.09375 42.984375 23.796875 44 20.40625 44 
C 12.5 44 6.796875 37.625 6.796875 30.890625 
C 6.796875 27.1875 9.796875 27 10.40625 27 
C 11.703125 27 14 27.796875 14 30.59375 
C 14 33.09375 12.09375 34.1875 10.40625 34.1875 
C 10 34.1875 9.5 34.09375 9.203125 34 
C 11.296875 40.53125 16.703125 42.390625 20.203125 42.390625 
C 25.203125 42.390625 30.703125 37.828125 30.703125 29.296875 
L 30.703125 25.5 
C 24.796875 25.296875 17.703125 24.5 12.09375 21.453125 
C 5.796875 17.921875 4 12.84375 4 9 
C 4 1.203125 13 -1 18.296875 -1 
C 23.796875 -1 28.90625 2.109375 31.09375 7.890625 
C 31.296875 3.421875 34.09375 -0.609375 38.5 -0.609375 
C 40.59375 -0.609375 45.90625 0.796875 45.90625 8.796875 
L 45.90625 14.46875 
L 44.09375 14.46875 
L 44.09375 8.703125 
C 44.09375 2.515625 41.40625 1.703125 40.09375 1.703125 
C 36 1.703125 36 6.96875 36 11.4375 
z
M 30.703125 13.859375 
C 30.703125 5.046875 24.5 0.59375 19 0.59375 
C 14 0.59375 10.09375 4.34375 10.09375 9 
C 10.09375 12.046875 11.40625 17.40625 17.203125 20.65625 
C 22 23.390625 27.5 23.796875 30.703125 24 
z
" id="CMR17-97"/>
     <path d="M 15.09375 40.390625 
L 29.09375 40.390625 
L 29.09375 43 
L 15.09375 43 
L 15.09375 62 
L 13.296875 62 
C 13.09375 51.4375 9.59375 42.1875 1.09375 41.984375 
L 1.09375 40.390625 
L 9.796875 40.390625 
L 9.796875 12.15625 
C 9.796875 10.234375 9.796875 -1 21.40625 -1 
C 27.296875 -1 30.703125 4.8125 30.703125 12.25 
L 30.703125 17.984375 
L 28.90625 17.984375 
L 28.90625 12.34375 
C 28.90625 5.421875 26.203125 0.796875 22 0.796875 
C 19.09375 0.796875 15.09375 2.796875 15.09375 11.953125 
z
" id="CMR17-116"/>
     <path d="M 43.09375 21.1875 
C 43.09375 34 33.796875 44 22.90625 44 
C 12 44 2.703125 34 2.703125 21.1875 
C 2.703125 8.59375 12 -1 22.90625 -1 
C 33.796875 -1 43.09375 8.59375 43.09375 21.1875 
z
M 22.90625 0.796875 
C 18.203125 0.796875 14.203125 3.59375 11.90625 7.5 
C 9.40625 12 9.09375 17.59375 9.09375 22 
C 9.09375 26.1875 9.296875 31.390625 11.90625 35.890625 
C 13.90625 39.1875 17.796875 42.390625 22.90625 42.390625 
C 27.40625 42.390625 31.203125 39.890625 33.59375 36.390625 
C 36.703125 31.6875 36.703125 25.09375 36.703125 22 
C 36.703125 18.09375 36.5 12.09375 33.796875 7.296875 
C 31 2.6875 26.703125 0.796875 22.90625 0.796875 
z
" id="CMR17-111"/>
     <path d="M 15.296875 40.390625 
L 26.703125 40.390625 
L 26.703125 43 
L 15.09375 43 
L 15.09375 55.296875 
C 15.09375 63.6875 19.296875 68.390625 23.59375 68.390625 
C 24.90625 68.390625 26.40625 68.171875 27.40625 67.796875 
C 26.59375 67.59375 24.5 66.890625 24.5 64.390625 
C 24.5 61.796875 26.5 61 27.90625 61 
C 29.296875 61 31.296875 61.796875 31.296875 64.390625 
C 31.296875 68.015625 27.703125 70 23.703125 70 
C 18 70 10.203125 65.796875 10.203125 55.09375 
L 10.203125 43 
L 2.203125 43 
L 2.203125 40.390625 
L 10.203125 40.390625 
L 10.203125 6.890625 
C 10.203125 3.09375 9.796875 2.59375 3.40625 2.59375 
L 3.40625 0 
C 5.796875 0.1875 10.40625 0.1875 13 0.1875 
C 15.90625 0.1875 21 0.1875 23.703125 0 
L 23.703125 2.59375 
C 16.5 2.59375 15.296875 2.59375 15.296875 7.09375 
z
" id="CMR17-102"/>
     <path d="M 20.90625 66.390625 
C 20.296875 67.890625 20.203125 68 18.09375 68 
L 5.296875 68 
L 5.296875 65.390625 
C 12.203125 65.390625 13.296875 65.390625 13.296875 60.90625 
L 13.296875 9.75 
C 13.296875 7.265625 13.296875 2.59375 5.296875 2.59375 
L 5.296875 0 
C 7.59375 0.1875 11.796875 0.1875 14.296875 0.1875 
C 16.796875 0.1875 21 0.1875 23.296875 0 
L 23.296875 2.59375 
C 15.296875 2.59375 15.296875 7.265625 15.296875 9.75 
L 15.296875 64.984375 
L 15.40625 64.984375 
L 38.90625 1.59375 
C 39.296875 0.59375 39.5 0 40.296875 0 
C 41.09375 0 41.296875 0.59375 41.703125 1.59375 
L 65.40625 65.484375 
L 65.5 65.484375 
L 65.5 7.078125 
C 65.5 2.59375 64.40625 2.59375 57.5 2.59375 
L 57.5 0 
C 60.203125 0.1875 65.59375 0.1875 68.5 0.1875 
C 71.40625 0.1875 76.90625 0.1875 79.59375 0 
L 79.59375 2.59375 
C 72.703125 2.59375 71.59375 2.59375 71.59375 7.078125 
L 71.59375 60.90625 
C 71.59375 65.390625 72.703125 65.390625 79.59375 65.390625 
L 79.59375 68 
L 66.90625 68 
C 64.796875 68 64.703125 67.890625 64.09375 66.390625 
L 42.5 8.0625 
z
" id="CMR17-77"/>
     <path d="M 11.09375 18.203125 
C 13 16.6875 16.296875 15 20.296875 15 
C 28.203125 15 35 21.234375 35 29.609375 
C 35 32.234375 34.203125 36.265625 31.203125 39.390625 
C 34 42.390625 38.09375 43.390625 40.40625 43.390625 
C 40.796875 43.390625 41.40625 43.390625 41.90625 43.09375 
C 41.5 42.984375 40.59375 42.59375 40.59375 40.984375 
C 40.59375 39.6875 41.5 38.796875 42.796875 38.796875 
C 44.296875 38.796875 45.09375 39.796875 45.09375 41.09375 
C 45.09375 42.984375 43.59375 45 40.40625 45 
C 36.40625 45 32.90625 43.09375 30.09375 40.484375 
C 27.09375 43.1875 23.5 44.1875 20.296875 44.1875 
C 12.40625 44.1875 5.59375 37.984375 5.59375 29.609375 
C 5.59375 23.859375 8.90625 20.21875 9.90625 19.21875 
C 6.90625 15.6875 6.90625 11.59375 6.90625 11.09375 
C 6.90625 8.5 7.90625 4.6875 11.296875 2.59375 
C 6.09375 1.28125 2 -2.875 2 -8.078125 
C 2 -15.5625 11.5 -21 22.90625 -21 
C 33.90625 -21 43.796875 -15.765625 43.796875 -7.96875 
C 43.796875 6 29 6 21.296875 6 
C 19 6 14.90625 6 14.40625 6.09375 
C 11.296875 6.59375 9.203125 9.390625 9.203125 12.890625 
C 9.203125 13.796875 9.203125 16 11.09375 18.203125 
z
M 20.296875 16.6875 
C 11.5 16.6875 11.5 27.59375 11.5 29.609375 
C 11.5 31.625 11.5 42.484375 20.296875 42.484375 
C 29.09375 42.484375 29.09375 31.625 29.09375 29.609375 
C 29.09375 27.59375 29.09375 16.6875 20.296875 16.6875 
z
M 22.90625 -19.3125 
C 12.90625 -19.3125 6 -13.796875 6 -8.078125 
C 6 -4.859375 7.703125 -1.84375 9.90625 -0.171875 
C 12.40625 1.59375 13.40625 1.59375 20.203125 1.59375 
C 28.40625 1.59375 39.796875 1.59375 39.796875 -8.078125 
C 39.796875 -13.796875 32.90625 -19.3125 22.90625 -19.3125 
z
" id="CMR17-103"/>
     <path d="M 41.5 30.53125 
C 41.5 35.65625 40.5 44 28.703125 44 
C 20.796875 44 16.703125 37.875 15.203125 33.84375 
L 15.09375 33.84375 
L 15.09375 44 
L 3.296875 42.890625 
L 3.296875 40.28125 
C 9.203125 40.28125 10.09375 39.6875 10.09375 34.859375 
L 10.09375 6.921875 
C 10.09375 3.09375 9.703125 2.59375 3.296875 2.59375 
L 3.296875 0 
C 5.703125 0.1875 10.09375 0.1875 12.703125 0.1875 
C 15.296875 0.1875 19.796875 0.1875 22.203125 0 
L 22.203125 2.59375 
C 15.796875 2.59375 15.40625 3 15.40625 6.921875 
L 15.40625 26.21875 
C 15.40625 35.453125 21 42.390625 28 42.390625 
C 35.40625 42.390625 36.203125 35.765625 36.203125 30.9375 
L 36.203125 6.921875 
C 36.203125 3.09375 35.796875 2.59375 29.40625 2.59375 
L 29.40625 0 
C 31.796875 0.1875 36.203125 0.1875 38.796875 0.1875 
C 41.40625 0.1875 45.90625 0.1875 48.296875 0 
L 48.296875 2.59375 
C 41.90625 2.59375 41.5 3 41.5 6.921875 
z
" id="CMR17-110"/>
     <path d="M 15.296875 69 
L 3.40625 67.890625 
L 3.40625 65.296875 
C 9.296875 65.296875 10.203125 64.703125 10.203125 59.921875 
L 10.203125 6.859375 
C 10.203125 3.09375 9.796875 2.59375 3.40625 2.59375 
L 3.40625 0 
C 5.796875 0.1875 10.203125 0.1875 12.703125 0.1875 
C 15.296875 0.1875 19.703125 0.1875 22.09375 0 
L 22.09375 2.59375 
C 15.703125 2.59375 15.296875 2.984375 15.296875 6.859375 
z
" id="CMR17-108"/>
     <path d="M 54.203125 25.1875 
L 52.40625 25.1875 
C 51.59375 15.328125 50.296875 2.59375 33.203125 2.59375 
L 23.90625 2.59375 
C 19.90625 2.59375 19.703125 3.09375 19.703125 6.46875 
L 19.703125 60.8125 
C 19.703125 64.390625 19.90625 65.390625 27.5 65.390625 
L 29.703125 65.390625 
L 29.703125 68 
C 25.59375 67.796875 20.796875 67.796875 16.703125 67.796875 
C 13.59375 67.796875 8 67.796875 5.09375 68 
L 5.09375 65.390625 
C 12 65.390625 13.09375 65.390625 13.09375 60.90625 
L 13.09375 7.078125 
C 13.09375 2.59375 12 2.59375 5.09375 2.59375 
L 5.09375 0 
L 51.796875 0 
z
" id="CMR17-76"/>
     <path d="M 25.5 19.59375 
L 25.5 24 
L 0.40625 24 
L 0.40625 19.59375 
z
" id="CMR17-45"/>
     <path d="M 26.09375 26.234375 
C 26 26.4375 25.5 27.03125 25.5 27.328125 
C 25.5 27.53125 32.59375 33.984375 33.5 34.78125 
C 39.203125 39.5625 42.796875 40.046875 45.40625 40.15625 
L 45.40625 42.734375 
C 44.796875 42.734375 44.59375 42.734375 44.5 42.640625 
L 39.59375 42.53125 
C 36.796875 42.53125 32.5 42.53125 29.796875 42.734375 
L 29.796875 40.15625 
C 31.203125 40.046875 32.203125 39.265625 32.203125 37.859375 
C 32.203125 35.875 30.203125 33.984375 30.09375 33.984375 
L 15 20.28125 
L 15 69 
L 3.09375 67.890625 
L 3.09375 65.296875 
C 9 65.296875 9.90625 64.703125 9.90625 59.921875 
L 9.90625 6.859375 
C 9.90625 3.09375 9.5 2.59375 3.09375 2.59375 
L 3.09375 0 
C 5.5 0.1875 9.90625 0.1875 12.40625 0.1875 
C 14.90625 0.1875 19.296875 0.1875 21.703125 0 
L 21.703125 2.59375 
C 15.296875 2.59375 14.90625 2.984375 14.90625 6.859375 
L 14.90625 17.796875 
L 21.796875 24.0625 
L 31.90625 9.15625 
C 33.09375 7.359375 34.09375 5.96875 34.09375 4.671875 
C 34.09375 2.890625 32.296875 2.59375 31.09375 2.59375 
L 31.09375 0 
C 33.5 0.1875 37.796875 0.1875 40.296875 0.1875 
C 42.09375 0.1875 45.796875 0.09375 47.5 0 
L 47.5 2.59375 
C 42.796875 2.59375 41.703125 3.484375 38.703125 7.859375 
z
" id="CMR17-107"/>
     <path d="M 41.5 30.53125 
C 41.5 35.65625 40.5 44 28.703125 44 
C 20.5 44 16.5 37.375 15.296875 34.046875 
L 15.203125 34.046875 
L 15.203125 69 
L 3.296875 67.890625 
L 3.296875 65.296875 
C 9.203125 65.296875 10.09375 64.703125 10.09375 60.046875 
L 10.09375 6.921875 
C 10.09375 3.09375 9.703125 2.59375 3.296875 2.59375 
L 3.296875 0 
C 5.703125 0.1875 10.09375 0.1875 12.703125 0.1875 
C 15.296875 0.1875 19.796875 0.1875 22.203125 0 
L 22.203125 2.59375 
C 15.796875 2.59375 15.40625 3 15.40625 6.921875 
L 15.40625 26.21875 
C 15.40625 35.453125 21 42.390625 28 42.390625 
C 35.40625 42.390625 36.203125 35.765625 36.203125 30.9375 
L 36.203125 6.921875 
C 36.203125 3.09375 35.796875 2.59375 29.40625 2.59375 
L 29.40625 0 
C 31.796875 0.1875 36.203125 0.1875 38.796875 0.1875 
C 41.40625 0.1875 45.90625 0.1875 48.296875 0 
L 48.296875 2.59375 
C 41.90625 2.59375 41.5 3 41.5 6.921875 
z
" id="CMR17-104"/>
     <path d="M 29.40625 42.890625 
L 29.40625 40.296875 
C 35.296875 40.296875 36.203125 39.6875 36.203125 34.828125 
L 36.203125 16.453125 
C 36.203125 7.96875 31.703125 0.59375 24.296875 0.59375 
C 16.09375 0.59375 15.40625 5.546875 15.40625 10.796875 
L 15.40625 44 
L 3.296875 42.890625 
L 3.296875 40.296875 
C 7.296875 40.296875 10 40.296875 10.09375 36.25 
L 10.09375 16.859375 
C 10.09375 10.09375 10.09375 5.75 12.703125 2.921875 
C 14 1.609375 16.5 -1 23.703125 -1 
C 32.203125 -1 35.5 6.25 36.296875 8.375 
L 36.40625 8.375 
L 36.40625 -1 
L 48.296875 -0.203125 
L 48.296875 2.40625 
C 42.40625 2.40625 41.5 3.015625 41.5 7.859375 
L 41.5 44 
z
" id="CMR17-117"/>
     <path d="M 34.90625 35 
C 33 35 30.203125 35 30.203125 31.484375 
C 30.203125 28.6875 32.5 27.890625 33.796875 27.890625 
C 34.5 27.890625 37.40625 28.1875 37.40625 31.6875 
C 37.40625 38.6875 30.59375 44 22.90625 44 
C 12.296875 44 3.296875 34.390625 3.296875 21.546875 
C 3.296875 8.140625 12.703125 -1 22.90625 -1 
C 35.296875 -1 38.40625 10.5625 38.40625 11.671875 
C 38.40625 12.078125 38.296875 12.375 37.59375 12.375 
C 36.90625 12.375 36.796875 12.28125 36.40625 10.96875 
C 33.796875 2.8125 28.09375 0.796875 23.796875 0.796875 
C 17.40625 0.796875 9.703125 6.734375 9.703125 21.640625 
C 9.703125 36.84375 17.09375 42.1875 23 42.1875 
C 26.90625 42.1875 32.703125 40.34375 34.90625 35 
z
" id="CMR17-99"/>
    </defs>
    <g style="fill:#262626;" transform="translate(92.89339 17.19998)scale(0.144 -0.144)">
     <use transform="translate(0 -0.072667)scale(0.996264)" xlink:href="#CMR17-68"/>
     <use transform="translate(70.393556 -0.072667)scale(0.996264)" xlink:href="#CMR17-101"/>
     <use transform="translate(110.879216 -0.072667)scale(0.996264)" xlink:href="#CMR17-114"/>
     <use transform="translate(146.159984 -0.072667)scale(0.996264)" xlink:href="#CMR17-105"/>
     <use transform="translate(171.031043 -0.072667)scale(0.996264)" xlink:href="#CMR17-118"/>
     <use transform="translate(214.119142 -0.072667)scale(0.996264)" xlink:href="#CMR17-97"/>
     <use transform="translate(259.809619 -0.072667)scale(0.996264)" xlink:href="#CMR17-116"/>
     <use transform="translate(295.090387 -0.072667)scale(0.996264)" xlink:href="#CMR17-105"/>
     <use transform="translate(319.961445 -0.072667)scale(0.996264)" xlink:href="#CMR17-118"/>
     <use transform="translate(365.651907 -0.072667)scale(0.996264)" xlink:href="#CMR17-101"/>
     <use transform="translate(436.213534 -0.072667)scale(0.996264)" xlink:href="#CMR17-111"/>
     <use transform="translate(481.904011 -0.072667)scale(0.996264)" xlink:href="#CMR17-102"/>
     <use transform="translate(539.45349 -0.072667)scale(0.996264)" xlink:href="#CMR17-77"/>
     <use transform="translate(624.14043 -0.072667)scale(0.996264)" xlink:href="#CMR17-97"/>
     <use transform="translate(669.830908 -0.072667)scale(0.996264)" xlink:href="#CMR17-114"/>
     <use transform="translate(705.111675 -0.072667)scale(0.996264)" xlink:href="#CMR17-103"/>
     <use transform="translate(750.802152 -0.072667)scale(0.996264)" xlink:href="#CMR17-105"/>
     <use transform="translate(775.673211 -0.072667)scale(0.996264)" xlink:href="#CMR17-110"/>
     <use transform="translate(826.568581 -0.072667)scale(0.996264)" xlink:href="#CMR17-97"/>
     <use transform="translate(872.259058 -0.072667)scale(0.996264)" xlink:href="#CMR17-108"/>
     <use transform="translate(927.206083 -0.072667)scale(0.996264)" xlink:href="#CMR17-76"/>
     <use transform="translate(984.587491 -0.072667)scale(0.996264)" xlink:href="#CMR17-111"/>
     <use transform="translate(1030.277968 -0.072667)scale(0.996264)" xlink:href="#CMR17-103"/>
     <use transform="translate(1075.968445 -0.072667)scale(0.996264)" xlink:href="#CMR17-45"/>
     <use transform="translate(1106.044411 -0.072667)scale(0.996264)" xlink:href="#CMR17-76"/>
     <use transform="translate(1163.425819 -0.072667)scale(0.996264)" xlink:href="#CMR17-105"/>
     <use transform="translate(1188.296877 -0.072667)scale(0.996264)" xlink:href="#CMR17-107"/>
     <use transform="translate(1233.987339 -0.072667)scale(0.996264)" xlink:href="#CMR17-101"/>
     <use transform="translate(1274.473 -0.072667)scale(0.996264)" xlink:href="#CMR17-108"/>
     <use transform="translate(1299.344058 -0.072667)scale(0.996264)" xlink:href="#CMR17-105"/>
     <use transform="translate(1324.215117 -0.072667)scale(0.996264)" xlink:href="#CMR17-104"/>
     <use transform="translate(1375.110487 -0.072667)scale(0.996264)" xlink:href="#CMR17-111"/>
     <use transform="translate(1423.403402 -0.072667)scale(0.996264)" xlink:href="#CMR17-111"/>
     <use transform="translate(1471.696318 -0.072667)scale(0.996264)" xlink:href="#CMR17-100"/>
     <use transform="translate(1552.667654 -0.072667)scale(0.996264)" xlink:href="#CMR17-102"/>
     <use transform="translate(1580.141167 -0.072667)scale(0.996264)" xlink:href="#CMR17-117"/>
     <use transform="translate(1631.036537 -0.072667)scale(0.996264)" xlink:href="#CMR17-110"/>
     <use transform="translate(1681.931906 -0.072667)scale(0.996264)" xlink:href="#CMR17-99"/>
     <use transform="translate(1722.417567 -0.072667)scale(0.996264)" xlink:href="#CMR17-116"/>
     <use transform="translate(1757.698335 -0.072667)scale(0.996264)" xlink:href="#CMR17-105"/>
     <use transform="translate(1782.569393 -0.072667)scale(0.996264)" xlink:href="#CMR17-111"/>
     <use transform="translate(1828.25987 -0.072667)scale(0.996264)" xlink:href="#CMR17-110"/>
    </g>
   </g>
  </g>
  <g id="axes_2">
   <g id="patch_8">
    <path d="M 213.29314 182.86718 
L 391.85314 182.86718 
L 391.85314 49.81118 
L 213.29314 49.81118 
z
" style="fill:#fdf5e6;"/>
   </g>
   <g id="matplotlib.axis_3">
    <g id="xtick_56">
     <g id="line2d_71">
      <g>
       <use style="fill:#262626;stroke:#262626;stroke-width:1.25;" x="213.29314" xlink:href="#md80b0acb00" y="182.86718"/>
      </g>
     </g>
     <g id="text_14">
      <g id="patch_9">
       <path d="M 200.24659 208.06047 
L 226.33969 208.06047 
L 226.33969 188.40718 
L 200.24659 188.40718 
z
" style="fill:#ffffff;stroke:#ffffff;stroke-linejoin:miter;"/>
      </g>
      <!-- $10^{1}$ -->
      <g style="fill:#262626;" transform="translate(204.20659 201.53382)scale(0.132 -0.132)">
       <use transform="scale(0.996264)" xlink:href="#CMR17-49"/>
       <use transform="translate(45.690477 0)scale(0.996264)" xlink:href="#CMR17-48"/>
       <use transform="translate(91.380954 36.153639)scale(0.697382)" xlink:href="#CMR17-49"/>
      </g>
     </g>
    </g>
    <g id="xtick_57">
     <g id="line2d_72">
      <g>
       <use style="fill:#262626;stroke:#262626;stroke-width:1.25;" x="302.57314" xlink:href="#md80b0acb00" y="182.86718"/>
      </g>
     </g>
     <g id="text_15">
      <g id="patch_10">
       <path d="M 289.52659 208.06047 
L 315.61969 208.06047 
L 315.61969 188.40718 
L 289.52659 188.40718 
z
" style="fill:#ffffff;stroke:#ffffff;stroke-linejoin:miter;"/>
      </g>
      <!-- $10^{2}$ -->
      <g style="fill:#262626;" transform="translate(293.48659 201.53382)scale(0.132 -0.132)">
       <use transform="scale(0.996264)" xlink:href="#CMR17-49"/>
       <use transform="translate(45.690477 0)scale(0.996264)" xlink:href="#CMR17-48"/>
       <use transform="translate(91.380954 36.153639)scale(0.697382)" xlink:href="#CMR17-50"/>
      </g>
     </g>
    </g>
    <g id="xtick_58">
     <g id="line2d_73">
      <g>
       <use style="fill:#262626;stroke:#262626;stroke-width:1.25;" x="391.85314" xlink:href="#md80b0acb00" y="182.86718"/>
      </g>
     </g>
     <g id="text_16">
      <g id="patch_11">
       <path d="M 378.80659 208.06047 
L 404.89969 208.06047 
L 404.89969 188.40718 
L 378.80659 188.40718 
z
" style="fill:#ffffff;stroke:#ffffff;stroke-linejoin:miter;"/>
      </g>
      <!-- $10^{3}$ -->
      <g style="fill:#262626;" transform="translate(382.76659 201.53382)scale(0.132 -0.132)">
       <use transform="scale(0.996264)" xlink:href="#CMR17-49"/>
       <use transform="translate(45.690477 0)scale(0.996264)" xlink:href="#CMR17-48"/>
       <use transform="translate(91.380954 36.153639)scale(0.697382)" xlink:href="#CMR17-51"/>
      </g>
     </g>
    </g>
    <g id="xtick_59">
     <g id="line2d_74">
      <g>
       <use style="fill:#262626;stroke:#262626;" x="240.169098" xlink:href="#ma93bb12aea" y="182.86718"/>
      </g>
     </g>
    </g>
    <g id="xtick_60">
     <g id="line2d_75">
      <g>
       <use style="fill:#262626;stroke:#262626;" x="255.890526" xlink:href="#ma93bb12aea" y="182.86718"/>
      </g>
     </g>
    </g>
    <g id="xtick_61">
     <g id="line2d_76">
      <g>
       <use style="fill:#262626;stroke:#262626;" x="267.045056" xlink:href="#ma93bb12aea" y="182.86718"/>
      </g>
     </g>
    </g>
    <g id="xtick_62">
     <g id="line2d_77">
      <g>
       <use style="fill:#262626;stroke:#262626;" x="275.697182" xlink:href="#ma93bb12aea" y="182.86718"/>
      </g>
     </g>
    </g>
    <g id="xtick_63">
     <g id="line2d_78">
      <g>
       <use style="fill:#262626;stroke:#262626;" x="282.766484" xlink:href="#ma93bb12aea" y="182.86718"/>
      </g>
     </g>
    </g>
    <g id="xtick_64">
     <g id="line2d_79">
      <g>
       <use style="fill:#262626;stroke:#262626;" x="288.743493" xlink:href="#ma93bb12aea" y="182.86718"/>
      </g>
     </g>
    </g>
    <g id="xtick_65">
     <g id="line2d_80">
      <g>
       <use style="fill:#262626;stroke:#262626;" x="293.921014" xlink:href="#ma93bb12aea" y="182.86718"/>
      </g>
     </g>
    </g>
    <g id="xtick_66">
     <g id="line2d_81">
      <g>
       <use style="fill:#262626;stroke:#262626;" x="298.487911" xlink:href="#ma93bb12aea" y="182.86718"/>
      </g>
     </g>
    </g>
    <g id="xtick_67">
     <g id="line2d_82">
      <g>
       <use style="fill:#262626;stroke:#262626;" x="329.449098" xlink:href="#ma93bb12aea" y="182.86718"/>
      </g>
     </g>
    </g>
    <g id="xtick_68">
     <g id="line2d_83">
      <g>
       <use style="fill:#262626;stroke:#262626;" x="345.170526" xlink:href="#ma93bb12aea" y="182.86718"/>
      </g>
     </g>
    </g>
    <g id="xtick_69">
     <g id="line2d_84">
      <g>
       <use style="fill:#262626;stroke:#262626;" x="356.325056" xlink:href="#ma93bb12aea" y="182.86718"/>
      </g>
     </g>
    </g>
    <g id="xtick_70">
     <g id="line2d_85">
      <g>
       <use style="fill:#262626;stroke:#262626;" x="364.977182" xlink:href="#ma93bb12aea" y="182.86718"/>
      </g>
     </g>
    </g>
    <g id="xtick_71">
     <g id="line2d_86">
      <g>
       <use style="fill:#262626;stroke:#262626;" x="372.046484" xlink:href="#ma93bb12aea" y="182.86718"/>
      </g>
     </g>
    </g>
    <g id="xtick_72">
     <g id="line2d_87">
      <g>
       <use style="fill:#262626;stroke:#262626;" x="378.023493" xlink:href="#ma93bb12aea" y="182.86718"/>
      </g>
     </g>
    </g>
    <g id="xtick_73">
     <g id="line2d_88">
      <g>
       <use style="fill:#262626;stroke:#262626;" x="383.201014" xlink:href="#ma93bb12aea" y="182.86718"/>
      </g>
     </g>
    </g>
    <g id="xtick_74">
     <g id="line2d_89">
      <g>
       <use style="fill:#262626;stroke:#262626;" x="387.767911" xlink:href="#ma93bb12aea" y="182.86718"/>
      </g>
     </g>
    </g>
   </g>
   <g id="matplotlib.axis_4">
    <g id="ytick_4">
     <g id="line2d_90">
      <path clip-path="url(#p591cd4f234)" d="M 213.29314 182.86718 
L 391.85314 182.86718 
" style="fill:none;stroke:#cccccc;stroke-linecap:round;"/>
     </g>
     <g id="line2d_91">
      <g>
       <use style="fill:#262626;stroke:#262626;stroke-width:1.25;" x="213.29314" xlink:href="#m4cb075b2a1" y="182.86718"/>
      </g>
     </g>
     <g id="text_17">
      <!-- $-2$ -->
      <g style="fill:#262626;" transform="translate(187.06403 187.4505)scale(0.132 -0.132)">
       <use transform="translate(0 -0.031134)scale(0.996264)" xlink:href="#CMSY10-0"/>
       <use transform="translate(77.487468 -0.031134)scale(0.996264)" xlink:href="#CMR17-50"/>
      </g>
     </g>
    </g>
    <g id="ytick_5">
     <g id="line2d_92">
      <path clip-path="url(#p591cd4f234)" d="M 213.29314 116.33918 
L 391.85314 116.33918 
" style="fill:none;stroke:#cccccc;stroke-linecap:round;"/>
     </g>
     <g id="line2d_93">
      <g>
       <use style="fill:#262626;stroke:#262626;stroke-width:1.25;" x="213.29314" xlink:href="#m4cb075b2a1" y="116.33918"/>
      </g>
     </g>
     <g id="text_18">
      <!-- $0$ -->
      <g style="fill:#262626;" transform="translate(197.33072 120.9225)scale(0.132 -0.132)">
       <use transform="scale(0.996264)" xlink:href="#CMR17-48"/>
      </g>
     </g>
    </g>
    <g id="ytick_6">
     <g id="line2d_94">
      <path clip-path="url(#p591cd4f234)" d="M 213.29314 49.81118 
L 391.85314 49.81118 
" style="fill:none;stroke:#cccccc;stroke-linecap:round;"/>
     </g>
     <g id="line2d_95">
      <g>
       <use style="fill:#262626;stroke:#262626;stroke-width:1.25;" x="213.29314" xlink:href="#m4cb075b2a1" y="49.81118"/>
      </g>
     </g>
     <g id="text_19">
      <!-- $2$ -->
      <g style="fill:#262626;" transform="translate(197.33072 54.3945)scale(0.132 -0.132)">
       <use transform="scale(0.996264)" xlink:href="#CMR17-50"/>
      </g>
     </g>
    </g>
    <g id="text_20">
     <!-- $\times10^{-4}$ -->
     <defs>
      <path d="M 38.90625 27.734375 
L 18.90625 47.59375 
C 17.703125 48.796875 17.5 49 16.703125 49 
C 15.703125 49 14.703125 48.09375 14.703125 47 
C 14.703125 46.296875 14.90625 46.09375 16 45 
L 36 24.9375 
L 16 4.890625 
C 14.90625 3.796875 14.703125 3.59375 14.703125 2.890625 
C 14.703125 1.796875 15.703125 0.890625 16.703125 0.890625 
C 17.5 0.890625 17.703125 1.09375 18.90625 2.296875 
L 38.796875 22.15625 
L 59.5 1.484375 
C 59.703125 1.390625 60.40625 0.890625 61 0.890625 
C 62.203125 0.890625 63 1.796875 63 2.890625 
C 63 3.09375 63 3.484375 62.703125 3.984375 
C 62.59375 4.1875 46.703125 19.859375 41.703125 24.9375 
L 60 43.203125 
C 60.5 43.796875 62 45.09375 62.5 45.703125 
C 62.59375 45.890625 63 46.296875 63 47 
C 63 48.09375 62.203125 49 61 49 
C 60.203125 49 59.796875 48.59375 58.703125 47.5 
z
" id="CMSY10-2"/>
     </defs>
     <g style="fill:#262626;" transform="translate(213.29314 46.81118)scale(0.132 -0.132)">
      <use transform="translate(0 -0.031134)scale(0.996264)" xlink:href="#CMSY10-2"/>
      <use transform="translate(77.487468 -0.031134)scale(0.996264)" xlink:href="#CMR17-49"/>
      <use transform="translate(123.177945 -0.031134)scale(0.996264)" xlink:href="#CMR17-48"/>
      <use transform="translate(168.868422 36.122505)scale(0.697382)" xlink:href="#CMSY10-0"/>
      <use transform="translate(223.109415 36.122505)scale(0.697382)" xlink:href="#CMR17-52"/>
     </g>
    </g>
   </g>
   <g id="patch_12">
    <path d="M 213.29314 182.86718 
L 297.81154 279.808075 
" style="fill:none;stroke:#808080;stroke-linejoin:miter;"/>
   </g>
   <g id="patch_13">
    <path d="M 391.85314 49.81118 
L 416.85154 279.807885 
" style="fill:none;stroke:#808080;stroke-linejoin:miter;"/>
   </g>
   <g id="line2d_96">
    <path clip-path="url(#p591cd4f234)" d="M 229.630422 -1 
L 231.329504 29.123958 
L 233.13314 55.708995 
L 234.936776 77.660356 
L 236.740413 95.640759 
L 238.544049 110.228091 
L 240.347685 121.925509 
L 242.151322 131.170411 
L 243.954958 138.342366 
L 245.758595 143.770152 
L 247.562231 147.73797 
L 249.365867 150.490949 
L 251.169504 152.240007 
L 252.97314 153.166144 
L 254.776776 153.424231 
L 256.580413 153.146353 
L 258.384049 152.444754 
L 260.187685 151.414431 
L 261.991322 150.135416 
L 263.794958 148.67478 
L 265.598595 147.088397 
L 267.402231 145.422486 
L 269.205867 143.71497 
L 271.009504 141.996656 
L 272.81314 140.292275 
L 274.616776 138.621383 
L 276.420413 136.999149 
L 278.224049 135.437045 
L 280.027685 133.943432 
L 281.831322 132.524084 
L 283.634958 131.182628 
L 285.438595 129.920928 
L 287.242231 128.739418 
L 289.045867 127.637381 
L 290.849504 126.613189 
L 292.65314 125.664511 
L 294.456776 124.788485 
L 296.260413 123.98186 
L 298.064049 123.241121 
L 299.867685 122.562587 
L 301.671322 121.942498 
L 303.474958 121.377075 
L 305.278595 120.862579 
L 307.082231 120.395355 
L 308.885867 119.971859 
L 310.689504 119.588686 
L 312.49314 119.242591 
L 314.296776 118.930496 
L 316.100413 118.649497 
L 317.904049 118.396874 
L 319.707685 118.170083 
L 321.511322 117.966762 
L 323.314958 117.784718 
L 325.118595 117.621929 
L 326.922231 117.476532 
L 328.725867 117.346818 
L 330.529504 117.231222 
L 332.33314 117.128317 
L 334.136776 117.036801 
L 335.940413 116.955492 
L 337.744049 116.883318 
L 339.547685 116.81931 
L 341.351322 116.762592 
L 343.154958 116.712374 
L 344.958595 116.667945 
L 346.762231 116.628666 
L 348.565867 116.593965 
L 350.369504 116.563329 
L 352.17314 116.536299 
L 353.976776 116.512464 
L 355.780413 116.491459 
L 357.584049 116.472957 
L 359.387685 116.456669 
L 361.191322 116.442337 
L 362.994958 116.42973 
L 364.798595 116.418647 
L 366.602231 116.408907 
L 368.405867 116.40035 
L 370.209504 116.392835 
L 372.01314 116.386237 
L 373.816776 116.380447 
L 375.620413 116.375365 
L 377.424049 116.370908 
L 379.227685 116.366998 
L 381.031322 116.36357 
L 382.834958 116.360564 
L 384.638595 116.357929 
L 386.442231 116.355619 
L 388.245867 116.353595 
L 390.049504 116.35182 
L 391.85314 116.350266 
" style="fill:none;stroke:#000000;stroke-linecap:round;stroke-width:1.5;"/>
   </g>
   <g id="line2d_97">
    <path clip-path="url(#p591cd4f234)" d="M 239.435052 116.33918 
" style="fill:none;stroke:#000000;stroke-linecap:round;stroke-width:1.5;"/>
    <g clip-path="url(#p591cd4f234)">
     <use style="stroke:#000000;" x="239.435052" xlink:href="#mcd8dfcc929" y="116.33918"/>
    </g>
   </g>
   <g id="patch_14">
    <path d="M 213.29314 182.86718 
L 213.29314 49.81118 
" style="fill:none;stroke:#262626;stroke-linecap:square;stroke-linejoin:miter;stroke-width:1.25;"/>
   </g>
   <g id="patch_15">
    <path d="M 391.85314 182.86718 
L 391.85314 49.81118 
" style="fill:none;stroke:#262626;stroke-linecap:square;stroke-linejoin:miter;stroke-width:1.25;"/>
   </g>
   <g id="patch_16">
    <path d="M 213.29314 182.86718 
L 391.85314 182.86718 
" style="fill:none;stroke:#262626;stroke-linecap:square;stroke-linejoin:miter;stroke-width:1.25;"/>
   </g>
   <g id="patch_17">
    <path d="M 213.29314 49.81118 
L 391.85314 49.81118 
" style="fill:none;stroke:#262626;stroke-linecap:square;stroke-linejoin:miter;stroke-width:1.25;"/>
   </g>
   <g id="text_21">
    <!-- $\hat{\eta} = 10^{1.29}$ -->
    <defs>
     <path d="M 64.296875 32 
C 65.796875 32 67.296875 32 67.296875 33.6875 
C 67.296875 35.5 65.59375 35.5 63.90625 35.5 
L 8 35.5 
C 6.296875 35.5 4.59375 35.5 4.59375 33.6875 
C 4.59375 32 6.09375 32 7.59375 32 
z
M 63.90625 14.484375 
C 65.59375 14.484375 67.296875 14.484375 67.296875 16.296875 
C 67.296875 18 65.796875 18 64.296875 18 
L 7.59375 18 
C 6.09375 18 4.59375 18 4.59375 16.296875 
C 4.59375 14.484375 6.296875 14.484375 8 14.484375 
z
" id="CMR17-61"/>
     <path d="M 18.40625 4.796875 
C 18.40625 7.6875 16 9.6875 13.59375 9.6875 
C 10.703125 9.6875 8.703125 7.296875 8.703125 4.890625 
C 8.703125 2 11.09375 0 13.5 0 
C 16.40625 0 18.40625 2.390625 18.40625 4.796875 
z
" id="CMMI12-58"/>
     <path d="M 35.203125 29.234375 
C 35.203125 7 26.09375 0.390625 18.59375 0.390625 
C 16.296875 0.390625 10.703125 0.671875 8.40625 4.390625 
C 11 4 12.90625 5.390625 12.90625 7.890625 
C 12.90625 10.59375 10.703125 11.5 9.296875 11.5 
C 8.40625 11.5 5.703125 11.09375 5.703125 7.6875 
C 5.703125 1.0625 11.59375 -2 18.796875 -2 
C 30.296875 -2 42 10.390625 42 32.65625 
C 42 60.265625 30.796875 66 23.203125 66 
C 13.296875 66 3.796875 57.25 3.796875 43.75 
C 3.796875 31.25 11.90625 22 22.09375 22 
C 30.5 22 34.203125 29.84375 35.203125 33.15625 
z
M 22.296875 23.59375 
C 19.59375 23.59375 15.796875 24.09375 12.703125 30.140625 
C 10.59375 34.078125 10.59375 38.703125 10.59375 43.640625 
C 10.59375 49.59375 10.59375 53.71875 13.40625 58.15625 
C 14.796875 60.265625 17.40625 63.6875 23.203125 63.6875 
C 35 63.6875 35 45.453125 35 41.421875 
C 35 34.265625 31.796875 23.59375 22.296875 23.59375 
z
" id="CMR17-57"/>
    </defs>
    <g style="fill:#262626;" transform="translate(248.363052 106.88639)scale(0.144 -0.144)">
     <use transform="translate(8.426105 -0.066187)scale(0.996264)" xlink:href="#CMR17-94"/>
     <use transform="translate(0 -0.072648)scale(0.996264)" xlink:href="#CMMI12-17"/>
     <use transform="translate(79.377824 -0.072648)scale(0.996264)" xlink:href="#CMR17-61"/>
     <use transform="translate(178.766622 -0.072648)scale(0.996264)" xlink:href="#CMR17-49"/>
     <use transform="translate(224.457099 -0.072648)scale(0.996264)" xlink:href="#CMR17-48"/>
     <use transform="translate(270.147576 36.080991)scale(0.697382)" xlink:href="#CMR17-49"/>
     <use transform="translate(302.130758 36.080991)scale(0.697382)" xlink:href="#CMMI12-58"/>
     <use transform="translate(321.098691 36.080991)scale(0.697382)" xlink:href="#CMR17-50"/>
     <use transform="translate(353.081873 36.080991)scale(0.697382)" xlink:href="#CMR17-57"/>
    </g>
   </g>
  </g>
 </g>
 <defs>
  <clipPath id="p9ee5c50616">
   <rect height="266.112" width="357.12" x="59.73154" y="23.19998"/>
  </clipPath>
  <clipPath id="p591cd4f234">
   <rect height="133.056" width="178.56" x="213.29314" y="49.81118"/>
  </clipPath>
 </defs>
</svg>
